{"nodes":[{"name":"mesh.gltf","mesh":0}],"bufferViews":[{"byteLength":4801176,"buffer":0,"byteStride":12,"target":34962,"byteOffset":4}],"scenes":[{"nodes":[0],"name":"Scene"}],"scene":0,"asset":{"version":"2.0","generator":"PIX4Dcatch 2.12.1 (160.1630) bbdfd9428"},"buffers":[{"byteLength":4801180,"uri":"mesh.bin"}],"meshes":[{"primitives":[{"mode":4,"attributes":{"POSITION":0}}],"name":"mesh.gltf"}],"accessors":[{"componentType":5126,"byteOffset":0,"count":400098,"bufferView":0,"type":"VEC3","normalized":false,"max":[-48.601402,16.973467,3.0597453],"min":[-58.25503,10.41319,-1.9097223]}]}